<?xml version="1.0" encoding="UTF-8"?>
<svg width="20px" height="19px" viewBox="0 0 20 19" version="1.1" xmlns="http://www.w3.org/2000/svg" xmlns:xlink="http://www.w3.org/1999/xlink">
    <!-- Generator: Sketch 43.2 (39069) - http://www.bohemiancoding.com/sketch -->
    <title>social-d20</title>
    <desc>Created with Sketch.</desc>
    <defs></defs>
    <g id="Symbols" stroke="none" stroke-width="1" fill="none" fill-rule="evenodd">
        <g id="Social-D20" fill="#000000">
            <g id="social-d20">
                <path d="M19.841677,7.91980065 L16.0965839,1.61927806 C16.0442857,1.53151032 15.9726087,1.46163935 15.8898758,1.41272968 L14.057205,0.222103871 C13.9581988,0.157626452 13.833354,0.122568387 13.7177019,0.122568387 L6.23397516,0.122568387 C6.11819876,0.122568387 5.99385093,0.157626452 5.89447205,0.222103871 L4.06180124,1.41272968 C3.97906832,1.46163935 3.90726708,1.53151032 3.85534161,1.61927806 L0.110248447,7.91980065 C0.040931677,8.01651677 -6.21118011e-05,8.13443935 -6.21118011e-05,8.26167806 L-6.21118011e-05,10.7896587 C-6.21118011e-05,10.8949555 0.0288819876,11.0079748 0.0845341615,11.1015039 L3.85149068,17.4389232 C3.8984472,17.5187232 3.9636646,17.5882265 4.04291925,17.6394652 L5.84801242,18.8121942 C5.95086957,18.8933426 6.0810559,18.9418845 6.22267081,18.9418845 L13.7290062,18.9418845 C13.8706211,18.9418845 14.0008075,18.8933426 14.1036646,18.8121942 L15.9091304,17.6394652 C15.9880124,17.5882265 16.0532298,17.5187232 16.1003106,17.4389232 L19.8672671,11.1015039 C19.922795,11.0079748 19.9516149,10.8949555 19.9516149,10.7896587 L19.9516149,8.26167806 C19.9516149,8.13443935 19.9108696,8.01651677 19.841677,7.91980065" id="Fill-1"></path>
            </g>
        </g>
    </g>
</svg>