<?xml version="1.0" encoding="UTF-8"?>
<svg width="20px" height="19px" viewBox="0 0 20 19" version="1.1" xmlns="http://www.w3.org/2000/svg" xmlns:xlink="http://www.w3.org/1999/xlink">
    <!-- Generator: Sketch 43.2 (39069) - http://www.bohemiancoding.com/sketch -->
    <title>social-twitter</title>
    <desc>Created with Sketch.</desc>
    <defs></defs>
    <g id="Symbols" stroke="none" stroke-width="1" fill="none" fill-rule="evenodd">
        <g id="Social-Media" transform="translate(-24.000000, 0.000000)">
            <g id="social-twitter" transform="translate(24.000000, 0.000000)">
                <path d="M19.841677,7.91980065 L16.0965839,1.61927806 C16.0442857,1.53151032 15.9726087,1.46163935 15.8898758,1.41272968 L14.057205,0.222103871 C13.9581988,0.157626452 13.833354,0.122568387 13.7177019,0.122568387 L6.23397516,0.122568387 C6.11819876,0.122568387 5.99385093,0.157626452 5.89447205,0.222103871 L4.06180124,1.41272968 C3.97906832,1.46163935 3.90726708,1.53151032 3.85534161,1.61927806 L0.110248447,7.91980065 C0.040931677,8.01651677 -6.21118011e-05,8.13443935 -6.21118011e-05,8.26167806 L-6.21118011e-05,10.7896587 C-6.21118011e-05,10.8949555 0.0288819876,11.0079748 0.0845341615,11.1015039 L3.85149068,17.4389232 C3.8984472,17.5187232 3.9636646,17.5882265 4.04291925,17.6394652 L5.84801242,18.8121942 C5.95086957,18.8933426 6.0810559,18.9418845 6.22267081,18.9418845 L13.7290062,18.9418845 C13.8706211,18.9418845 14.0008075,18.8933426 14.1036646,18.8121942 L15.9091304,17.6394652 C15.9880124,17.5882265 16.0532298,17.5187232 16.1003106,17.4389232 L19.8672671,11.1015039 C19.922795,11.0079748 19.9516149,10.8949555 19.9516149,10.7896587 L19.9516149,8.26167806 C19.9516149,8.13443935 19.9108696,8.01651677 19.841677,7.91980065" id="Fill-1" fill="#420295"></path>
                <path d="M16.9646335,5.80886387 C16.4710932,6.02485097 15.9407826,6.17084452 15.3840124,6.23642516 C15.9522112,5.90043161 16.3886087,5.36818645 16.5940745,4.73407677 C16.0623975,5.04530903 15.4734534,5.27134774 14.8466211,5.39307032 C14.3446335,4.86536065 13.629354,4.53549613 12.8379255,4.53549613 C11.3180497,4.53549613 10.0858758,5.75137355 10.0858758,7.25102516 C10.0858758,7.46382516 10.1102236,7.67110903 10.1571801,7.86981226 C7.87009938,7.75654774 5.84227329,6.67550903 4.48500621,5.03256065 C4.2481118,5.43364452 4.11245963,5.90006387 4.11245963,6.39774129 C4.11245963,7.33989613 4.59829814,8.1709929 5.33668323,8.65800581 C4.88562733,8.64390903 4.4612795,8.52181871 4.0902236,8.31833484 C4.08997516,8.32973484 4.08997516,8.34101226 4.08997516,8.35253484 C4.08997516,9.6681929 5.03854658,10.76578 6.29742857,11.0152316 C6.06649689,11.0772574 5.8233913,11.1104768 5.57245963,11.1104768 C5.39506832,11.1104768 5.22277019,11.0934381 5.05469565,11.0618123 C5.40488199,12.1406445 6.42115528,12.9257735 7.62537888,12.9475929 C6.68351553,13.6759671 5.49693168,14.1100252 4.20773913,14.1100252 C3.98550311,14.1100252 3.76649689,14.0971542 3.55121739,14.0721477 C4.76910559,14.8425671 6.21556522,15.2921929 7.76972671,15.2921929 C12.8314658,15.2921929 15.5994161,11.1543606 15.5994161,7.56581226 C15.5994161,7.44813484 15.5968075,7.33107032 15.5914658,7.21461871 C16.1291056,6.83167677 16.5956894,6.35348968 16.9646335,5.80886387" id="Fill-4" fill="#FEFEFE"></path>
            </g>
        </g>
    </g>
</svg>