<?xml version="1.0" encoding="UTF-8"?>
<svg width="20px" height="20px" viewBox="0 0 20 20" version="1.1" xmlns="http://www.w3.org/2000/svg" xmlns:xlink="http://www.w3.org/1999/xlink">
    <!-- Generator: Sketch 43.2 (39069) - http://www.bohemiancoding.com/sketch -->
    <title>soial-instagram</title>
    <desc>Created with Sketch.</desc>
    <defs></defs>
    <g id="Symbols" stroke="none" stroke-width="1" fill="none" fill-rule="evenodd">
        <g id="Social-Media" transform="translate(-48.000000, 0.000000)">
            <g id="soial-instagram" transform="translate(48.000000, 0.000000)">
                <path d="M19.841677,7.97416999 L16.0965839,1.63039439 C16.0442857,1.54202412 15.9726087,1.47167349 15.8898758,1.42242805 L14.057205,0.223628612 C13.9581988,0.158708555 13.833354,0.123409818 13.7177019,0.123409818 L6.23397516,0.123409818 C6.11819876,0.123409818 5.99385093,0.158708555 5.89447205,0.223628612 L4.06180124,1.42242805 C3.97906832,1.47167349 3.90726708,1.54202412 3.85534161,1.63039439 L0.110248447,7.97416999 C0.040931677,8.07155007 -6.21118013e-05,8.19028219 -6.21118013e-05,8.31839439 L-6.21118013e-05,10.8637296 C-6.21118013e-05,10.9697492 0.0288819876,11.0835445 0.0845341615,11.1777156 L3.85149068,17.5586412 C3.8984472,17.6389891 3.9636646,17.7089694 4.04291925,17.7605599 L5.84801242,18.9413397 C5.95086957,19.0230452 6.0810559,19.0719203 6.22267081,19.0719203 L13.7290062,19.0719203 C13.8706211,19.0719203 14.0008075,19.0230452 14.1036646,18.9413397 L15.9091304,17.7605599 C15.9880124,17.7089694 16.0532298,17.6389891 16.1003106,17.5586412 L19.8672671,11.1777156 C19.922795,11.0835445 19.9516149,10.9697492 19.9516149,10.8637296 L19.9516149,8.31839439 C19.9516149,8.19028219 19.9108696,8.07155007 19.841677,7.97416999" id="Fill-1" fill="#0FAFA9"></path>
                <path d="M9.97587578,3.47380309 C8.30196273,3.47380309 8.09202484,3.48083815 7.43463354,3.51070631 C6.77848447,3.54045105 6.33053416,3.64387882 5.93848447,3.79531781 C5.53314286,3.95181711 5.18941615,4.16114109 4.84680745,4.50166283 C4.50407453,4.84206115 4.29326708,5.18369369 4.13587578,5.58629677 C3.98345342,5.97581711 3.87922981,6.42100084 3.84929193,7.07279327 C3.81935404,7.72606676 3.81227329,7.93452679 3.81227329,9.59764039 C3.81227329,11.2608774 3.81935404,11.4693374 3.84929193,12.1224875 C3.87922981,12.7744034 3.98345342,13.2195871 4.13587578,13.6091074 C4.29326708,14.0117105 4.50407453,14.3533431 4.84680745,14.6937414 C5.18941615,15.0342631 5.53314286,15.2435871 5.93848447,15.4000864 C6.33053416,15.551402 6.77848447,15.6549532 7.43463354,15.6846979 C8.09202484,15.7145661 8.30196273,15.7216011 9.97587578,15.7216011 C11.6497888,15.7216011 11.8597267,15.7145661 12.517118,15.6846979 C13.1732671,15.6549532 13.6212174,15.551402 14.0132671,15.4000864 C14.4186087,15.2435871 14.7623354,15.0342631 15.1049441,14.6937414 C15.447677,14.3533431 15.6583602,14.0117105 15.8158758,13.6091074 C15.9682981,13.2195871 16.0725217,12.7744034 16.1024596,12.1224875 C16.1323975,11.4693374 16.1394783,11.2608774 16.1394783,9.59764039 C16.1394783,7.93452679 16.1323975,7.72606676 16.1024596,7.07279327 C16.0725217,6.42100084 15.9682981,5.97581711 15.8158758,5.58629677 C15.6583602,5.18369369 15.447677,4.84206115 15.1049441,4.50166283 C14.7623354,4.16114109 14.4186087,3.95181711 14.0132671,3.79531781 C13.6212174,3.64387882 13.1732671,3.54045105 12.517118,3.51070631 C11.8597267,3.48083815 11.6497888,3.47380309 9.97587578,3.47380309 M9.97587578,4.57719719 C11.6215901,4.57719719 11.8164969,4.58349173 12.466559,4.6128662 C13.0674286,4.6401425 13.393764,4.7398676 13.6110311,4.82379467 C13.8987329,4.93487461 14.1040745,5.06755344 14.3197267,5.28181431 C14.5353789,5.4961986 14.6690435,5.70009201 14.7808447,5.98593773 C14.8651925,6.20180309 14.9655652,6.5260331 14.9930186,7.12314951 C15.0227081,7.76889425 15.0289193,7.96254362 15.0289193,9.59764039 C15.0289193,11.2328606 15.0227081,11.42651 14.9930186,12.0722547 C14.9655652,12.6693711 14.8651925,12.9936011 14.7808447,13.2094665 C14.6690435,13.4951888 14.5353789,13.6992056 14.3197267,13.9135899 C14.1040745,14.1278508 13.8987329,14.2605296 13.6110311,14.3716095 C13.393764,14.4555366 13.0674286,14.5552617 12.466559,14.5824146 C11.8166211,14.6119125 11.6218385,14.618207 9.97587578,14.618207 C8.32991304,14.618207 8.13513043,14.6119125 7.48519255,14.5824146 C6.88432298,14.5552617 6.55798758,14.4555366 6.3407205,14.3716095 C6.05301863,14.2605296 5.84767702,14.1278508 5.63202484,13.9135899 C5.41637267,13.6992056 5.2828323,13.4951888 5.17090683,13.2094665 C5.08655901,12.9936011 4.98618634,12.6693711 4.95873292,12.0722547 C4.92904348,11.42651 4.9228323,11.2328606 4.9228323,9.59764039 C4.9228323,7.96254362 4.92904348,7.76889425 4.95873292,7.12314951 C4.98618634,6.5260331 5.08655901,6.20180309 5.17090683,5.98593773 C5.2828323,5.70009201 5.41637267,5.4961986 5.63202484,5.28181431 C5.84767702,5.06755344 6.05301863,4.93487461 6.3407205,4.82379467 C6.55798758,4.7398676 6.88432298,4.6401425 7.48519255,4.6128662 C8.13525466,4.58349173 8.33016149,4.57719719 9.97587578,4.57719719" id="Fill-4" fill="#FEFEFE"></path>
                <path d="M9.97587578,11.6389935 C8.84121739,11.6389935 7.92134161,10.7250525 7.92134161,9.59771445 C7.92134161,8.47025302 8.84121739,7.55643534 9.97587578,7.55643534 C11.1105342,7.55643534 12.0304099,8.47025302 12.0304099,9.59771445 C12.0304099,10.7250525 11.1105342,11.6389935 9.97587578,11.6389935 M9.97587578,6.45304123 C8.22780124,6.45304123 6.81078261,7.86091781 6.81078261,9.59771445 C6.81078261,11.3345111 8.22780124,12.7423877 9.97587578,12.7423877 C11.7239503,12.7423877 13.1409689,11.3345111 13.1409689,9.59771445 C13.1409689,7.86091781 11.7239503,6.45304123 9.97587578,6.45304123" id="Fill-6" fill="#FEFEFE"></path>
                <path d="M14.0056894,6.32874278 C14.0056894,6.73455484 13.6745093,7.06359832 13.2660621,7.06359832 C12.8576149,7.06359832 12.5264348,6.73455484 12.5264348,6.32874278 C12.5264348,5.92293072 12.8576149,5.59388724 13.2660621,5.59388724 C13.6745093,5.59388724 14.0056894,5.92293072 14.0056894,6.32874278" id="Fill-8" fill="#FEFEFE"></path>
            </g>
        </g>
    </g>
</svg>